<svg width="20" height="20" viewBox="0 0 20 20" xmlns="http://www.w3.org/2000/svg">
    <g fill="none" fill-rule="evenodd">
        <circle fill="#171732" cx="10" cy="10" r="10"/>
        <g fill="#EEE">
            <path d="m7.318 6.43 6.253 6.252a.607.607 0 0 1 0 .858l-.03.03a.607.607 0 0 1-.86 0L6.43 7.319a.607.607 0 0 1 0-.858l.03-.03a.607.607 0 0 1 .86 0z"/>
            <path d="m12.682 6.43-6.253 6.252a.607.607 0 0 0 0 .858l.03.03a.607.607 0 0 0 .86 0l6.252-6.252a.607.607 0 0 0 0-.858l-.03-.03a.607.607 0 0 0-.86 0z"/>
        </g>
    </g>
</svg>
