<svg width="24" height="24" viewBox="0 0 24 24" xmlns="http://www.w3.org/2000/svg">
    <g fill="none" fill-rule="evenodd">
        <path d="M0 0h24v24H0z"/>
        <path d="M21 5.097c-.9.428-1.782.601-2.7.864-1.009-1.105-2.505-1.166-3.942-.643C12.921 5.84 11.979 7.117 12 8.58v.874c-2.92.072-5.521-1.219-7.2-3.494 0 0-3.764 6.492 3.6 9.607-1.685 1.089-3.365 1.823-5.4 1.747 2.977 1.574 6.222 2.116 9.03 1.324 3.223-.908 5.87-3.251 6.886-6.761.304-1.067.454-2.17.448-3.278-.002-.217 1.359-2.42 1.636-3.504h0z" stroke="#161534" stroke-width=".9" stroke-linecap="round" stroke-linejoin="round"/>
    </g>
</svg>
