<svg width="24" height="24" viewBox="0 0 24 24" xmlns="http://www.w3.org/2000/svg">
    <g fill="none" fill-rule="evenodd">
        <path d="M0 0h24v24H0z"/>
        <g stroke="#161534" stroke-width=".8">
            <path d="M9.276 15.54h.96v3.568c0 .49-.41.892-.91.892H7.507c-.5 0-.91-.401-.91-.892v-3.569H2.91c-.691 0-1.128-.731-.796-1.325l5.508-9.756c.345-.61 1.246-.61 1.591 0l2.206 4.345-2.938 5.411c-.332.594.105 1.325.796 1.325zM20.29 15.54h-3.687v3.568c0 .49-.41.892-.91.892h-1.82c-.5 0-.909-.401-.909-.892v-3.569h.96c.691 0 1.128-.731.796-1.325l-2.984-5.41 2.252-4.346c.345-.61 1.246-.61 1.591 0l5.508 9.756c.332.594-.105 1.325-.796 1.325z"/>
        </g>
    </g>
</svg>
