<svg width="24" height="24" viewBox="0 0 24 24" xmlns="http://www.w3.org/2000/svg">
    <g fill="none" fill-rule="evenodd">
        <path d="M0 0h24v24H0z"/>
        <path d="M16.236 11.722a9.548 9.548 0 0 0-.534-2.908h3.007c.435.91.678 1.899.714 2.906l-3.187.002zm-8.48.558c.027.99.207 1.972.535 2.907H5.288a7.334 7.334 0 0 1-.71-2.909l3.179.002zm4.521-.558v-2.91h2.837a8.98 8.98 0 0 1 .569 2.908l-3.406.002zm0 3.465v-2.909h3.405a8.976 8.976 0 0 1-.567 2.907l-2.838.002zm0 .558h2.612a9.085 9.085 0 0 1-2.612 3.406v-3.406zm-.558 0v3.406a9.085 9.085 0 0 1-2.612-3.406h2.612zm0-3.465v2.907H8.885a8.987 8.987 0 0 1-.565-2.909l3.399.002zm0-3.466v2.906H8.32a8.993 8.993 0 0 1 .566-2.907l2.833.001zm.558-3.963a9.09 9.09 0 0 1 2.612 3.405h-2.612V4.851zm-.558 3.405H9.107a9.085 9.085 0 0 1 2.612-3.405v3.405zm1.624-3.573c.082.015.168.028.246.046.079.018.168.041.253.063.085.02.162.039.243.062.08.024.163.052.244.079.08.027.16.05.239.08.078.028.158.062.236.093.078.032.155.061.232.095.076.034.153.074.23.112.076.038.15.07.223.112.073.04.146.082.218.124.073.042.148.082.22.127.072.045.136.09.204.136.068.046.144.094.214.145.07.05.13.098.193.148.064.05.14.105.206.16.067.056.12.108.181.16.06.054.134.116.197.176.064.061.112.112.168.171.055.06.127.126.187.192.06.067.107.126.161.188.055.063.116.132.168.2l.154.209c.051.07.103.135.152.205.048.07.101.159.152.238.042.067.086.132.127.2l.029.055h-2.921a9.627 9.627 0 0 0-2.63-3.641c.072.008.144.014.216.025.09.007.174.025.258.04zm-7.646 3.37c.06-.098.12-.197.185-.29.042-.06.087-.118.13-.177.056-.08.115-.16.176-.237.049-.06.1-.117.151-.177.06-.07.119-.143.181-.211.053-.056.112-.112.164-.168.064-.065.126-.132.192-.195.056-.056.118-.106.177-.159.06-.053.132-.12.2-.177.07-.057.128-.099.192-.149.063-.05.136-.111.207-.16.071-.049.136-.092.204-.137.068-.046.142-.098.215-.143.073-.045.144-.084.216-.125.072-.042.145-.086.22-.126.075-.04.15-.074.224-.112a6.39 6.39 0 0 1 .228-.111c.077-.036.153-.063.23-.094.077-.03.158-.066.24-.096.08-.03.155-.052.233-.078.077-.025.167-.056.25-.08.081-.025.16-.042.24-.062.08-.02.168-.044.253-.063.085-.018.167-.03.248-.045.081-.015.172-.033.259-.046.072-.01.144-.016.217-.025a9.616 9.616 0 0 0-2.626 3.644H5.575c.011-.018.02-.037.03-.056.03-.05.063-.096.092-.146zm-.409.76h3.008a9.552 9.552 0 0 0-.534 2.907H4.581a7.338 7.338 0 0 1 .707-2.907zm5.368 10.502c-.082-.015-.167-.028-.246-.046-.079-.018-.168-.041-.254-.062-.085-.022-.162-.04-.241-.062-.08-.023-.164-.053-.246-.08-.082-.026-.159-.05-.237-.078-.08-.029-.16-.064-.24-.096-.078-.032-.153-.06-.229-.094-.075-.033-.155-.074-.232-.111-.078-.037-.149-.07-.224-.109-.074-.038-.149-.084-.223-.127-.074-.042-.144-.08-.214-.123s-.143-.096-.215-.144c-.072-.048-.137-.089-.203-.136-.067-.048-.14-.107-.208-.16-.07-.054-.129-.097-.19-.15-.063-.051-.133-.116-.2-.175-.066-.06-.121-.105-.18-.16-.057-.057-.126-.13-.189-.194-.063-.065-.111-.112-.167-.167-.063-.069-.121-.142-.182-.212-.05-.06-.101-.116-.15-.177-.06-.075-.115-.154-.172-.232-.045-.06-.091-.12-.134-.182-.064-.092-.123-.189-.183-.285-.031-.05-.066-.1-.096-.152l-.03-.055h2.932a9.619 9.619 0 0 0 2.63 3.64c-.072-.008-.144-.014-.216-.024-.088-.014-.175-.031-.261-.047zM18.266 16c-.05.078-.097.159-.15.235-.051.076-.104.142-.156.213-.053.07-.098.136-.149.2-.051.065-.115.136-.173.204-.058.068-.104.125-.158.185-.055.06-.123.126-.185.19-.062.062-.112.117-.17.173-.06.055-.13.116-.196.173-.065.058-.12.112-.183.163-.062.05-.137.106-.206.16-.069.054-.127.101-.193.149-.066.047-.143.096-.214.144-.071.048-.135.093-.204.136-.07.044-.149.086-.224.13-.074.042-.14.083-.214.121-.073.039-.153.076-.23.112-.077.036-.148.074-.223.108-.075.034-.155.064-.233.096-.077.032-.157.065-.236.095-.08.03-.158.052-.238.079-.079.026-.163.055-.245.079-.083.023-.163.042-.245.063-.082.02-.167.043-.25.062-.083.018-.168.031-.249.046-.08.015-.171.033-.258.045-.072.011-.145.017-.217.026a9.618 9.618 0 0 0 2.63-3.642h2.928l-.03.056c-.04.066-.085.132-.128.2zm.447-.814h-3.007a9.545 9.545 0 0 0 .535-2.908h3.18a7.338 7.338 0 0 1-.708 2.908zM20 11.999c0-.006-.003-.012-.004-.019A8 8 0 0 0 12.001 4a7.951 7.951 0 0 0-7.16 4.444 7.913 7.913 0 0 0-.837 3.536c0 .007-.004.013-.004.02 0 .006.003.012.004.018a7.909 7.909 0 0 0 .858 3.58 7.997 7.997 0 0 0 10.025 3.864 7.995 7.995 0 0 0 4.262-3.873 7.906 7.906 0 0 0 .85-3.573c-.003-.005 0-.01 0-.017H20z" stroke="#161633" stroke-width=".1" fill="#161633"/>
    </g>
</svg>
