<svg width="24" height="24" viewBox="0 0 24 24" xmlns="http://www.w3.org/2000/svg">
    <g fill="none" fill-rule="evenodd">
        <path d="M0 0h24v24H0z"/>
        <path d="M17.217 7.13a.348.348 0 1 1 0-.695.348.348 0 0 1 0 .695zm0-1.39a1.044 1.044 0 1 0 0 2.086 1.044 1.044 0 0 0 0-2.087zM12 15.477a3.478 3.478 0 1 1 0-6.956 3.478 3.478 0 0 1 0 6.956zm0-7.652a4.174 4.174 0 1 0 0 8.348 4.174 4.174 0 0 0 0-8.348zm7.304 10.783a.696.696 0 0 1-.695.695H5.39a.696.696 0 0 1-.695-.695V5.39a.696.696 0 0 1 .695-.695H18.61a.696.696 0 0 1 .695.695V18.61zM18.61 4H5.39A1.392 1.392 0 0 0 4 5.391V18.61A1.392 1.392 0 0 0 5.391 20H18.61A1.392 1.392 0 0 0 20 18.609V5.39A1.392 1.392 0 0 0 18.609 4z" stroke="#161633" stroke-width=".1" fill="#161633"/>
    </g>
</svg>
