<svg width="147" height="28" viewBox="0 0 147 28" xmlns="http://www.w3.org/2000/svg">
    <defs>
        <linearGradient x1="-.001%" y1="49.998%" x2="100.001%" y2="49.998%" id="e9rkh9rcqa">
            <stop stop-color="#0301F7" offset="0%"/>
            <stop stop-color="#2301EA" offset="13%"/>
            <stop stop-color="#5001D8" offset="33%"/>
            <stop stop-color="#7300CA" offset="52%"/>
            <stop stop-color="#8C00C0" offset="70%"/>
            <stop stop-color="#9C00BA" offset="87%"/>
            <stop stop-color="#A100B8" offset="100%"/>
        </linearGradient>
    </defs>
    <g fill-rule="nonzero" fill="none">
        <path d="M6.814 27.998h-.095a2.558 2.558 0 0 1-1.83-.878C-1.64 19.586-1.627 8.393 4.92.874A2.552 2.552 0 0 1 8.638.737l7.583 7.509a5.374 5.374 0 0 0 7.56 0L31.363.737a2.552 2.552 0 0 1 3.717.137c6.548 7.519 6.561 18.712.03 26.246a2.548 2.548 0 0 1-3.72.14l-7.61-7.534a5.374 5.374 0 0 0-7.56 0l-7.61 7.535a2.566 2.566 0 0 1-1.796.737zm.675-23.883a.743.743 0 0 0-1.125.092 16.81 16.81 0 0 0-.024 19.58.743.743 0 0 0 1.126.094l6.5-6.434A8.524 8.524 0 0 1 20 14.967c2.275 0 4.418.88 6.034 2.48l6.5 6.434a.743.743 0 0 0 1.126-.094 16.81 16.81 0 0 0-.024-19.58.745.745 0 0 0-1.127-.092l-6.475 6.41a8.573 8.573 0 0 1-12.068 0l-6.477-6.41z" fill="url(#e9rkh9rcqa)"/>
        <g fill="#171733">
            <path d="M64.997 13.46h-2.57v-3.317h2.57v3.317zm0 6.223c.84 0 1.564-.309 2.172-.926a3.04 3.04 0 0 0 .913-2.211c0-.857-.3-1.586-.9-2.186-.6-.6-1.328-.9-2.185-.9v-3.317c1.166 0 2.24.287 3.226.861a6.382 6.382 0 0 1 2.34 2.34c.574.986.86 2.062.86 3.227a6.299 6.299 0 0 1-.86 3.228 6.382 6.382 0 0 1-2.34 2.34 6.294 6.294 0 0 1-3.226.861v-3.317zm0 3.317h-2.57v-3.317h2.57V23zm-2.57 0a6.294 6.294 0 0 1-3.227-.861 6.382 6.382 0 0 1-2.339-2.34A6.299 6.299 0 0 1 56 16.57c0-1.165.287-2.241.861-3.227a6.382 6.382 0 0 1 2.34-2.34 6.294 6.294 0 0 1 3.226-.861v3.317c-.84 0-1.564.3-2.173.9a2.955 2.955 0 0 0-.912 2.186c0 .857.304 1.594.912 2.211.609.617 1.333.926 2.173.926V23zM81.963 13.46h-2.57v-3.317h2.57v3.317zm3.085 3.086c0-.857-.3-1.586-.9-2.186-.6-.6-1.328-.9-2.185-.9v-3.317c1.166 0 2.241.287 3.226.861a6.382 6.382 0 0 1 2.34 2.34c.574.986.86 2.062.86 3.227l-3.341-.025zm-12.082.025c0-1.165.287-2.241.861-3.227a6.382 6.382 0 0 1 2.34-2.34 6.294 6.294 0 0 1 3.226-.861v3.317c-.84 0-1.564.3-2.173.9a2.955 2.955 0 0 0-.912 2.186l-3.342.025zm0 6.429V10.143h3.316V23h-3.316zm12.082 0v-6.454l3.342.025V23h-3.342zM89.932 5h2.365l15.63 15.454V23h-2.185L89.932 7.366V5zm2.185 18h-2.185v-2.546L105.562 5h2.365v2.366L92.117 23zM112.81 5v18h-3.341V5h3.342zm8.278 12.703h-11.62v-3.317h11.62v3.317zm0-9.36h-11.62V5h11.62v3.343zm-.051 6.943 6.426 6.377V23h-3.367l-5.424-5.349 2.365-2.365zm.051-.9c.549 0 1.067-.137 1.555-.412a3.185 3.185 0 0 0 1.17-1.118c.291-.472.437-.999.437-1.582 0-.531-.146-1.024-.437-1.478a3.053 3.053 0 0 0-1.17-1.067 3.291 3.291 0 0 0-1.555-.386V5c1.148 0 2.21.287 3.188.861a6.475 6.475 0 0 1 2.326 2.315c.574.968.861 2.027.861 3.175a6.183 6.183 0 0 1-.86 3.189 6.343 6.343 0 0 1-2.327 2.314 6.25 6.25 0 0 1-3.188.849v-3.317zM132.347 5v18h-3.341V5h3.341zm8.278 12.703h-11.62v-3.317h11.62v3.317zm0-9.36h-11.62V5h11.62v3.343zm0 6.043c.548 0 1.067-.137 1.555-.412a3.185 3.185 0 0 0 1.17-1.118c.291-.472.437-.999.437-1.582 0-.531-.146-1.024-.437-1.478a3.053 3.053 0 0 0-1.17-1.067 3.291 3.291 0 0 0-1.555-.386V5c1.148 0 2.21.287 3.187.861a6.475 6.475 0 0 1 2.327 2.315c.574.968.861 2.027.861 3.175a6.183 6.183 0 0 1-.861 3.189 6.343 6.343 0 0 1-2.327 2.314 6.25 6.25 0 0 1-3.187.849v-3.317z"/>
        </g>
    </g>
</svg>
